<?xml version="1.0" encoding="UTF-8"?>
<!DOCTYPE svg PUBLIC "-//W3C//DTD SVG 1.1//EN" "http://www.w3.org/Graphics/SVG/1.1/DTD/svg11.dtd">
<svg xmlns="http://www.w3.org/2000/svg" version="1.1" width="1617px" height="393px" style="shape-rendering:geometricPrecision; text-rendering:geometricPrecision; image-rendering:optimizeQuality; fill-rule:evenodd; clip-rule:evenodd" xmlns:xlink="http://www.w3.org/1999/xlink">
<g><path style="opacity:0.935" fill="#3987c6" d="M 607.5,-0.5 C 616.833,-0.5 626.167,-0.5 635.5,-0.5C 678.448,7.95207 698.281,34.2854 695,78.5C 691.916,107.582 676.416,126.415 648.5,135C 629.401,139.895 610.401,139.562 591.5,134C 567.063,124.889 552.896,107.389 549,81.5C 543.823,36.0912 563.323,8.75787 607.5,-0.5 Z M 613.5,6.5 C 648.487,4.66213 668.654,20.9955 674,55.5C 677.016,75.0783 673.683,93.4116 664,110.5C 646.742,130.441 625.576,135.941 600.5,127C 585.616,120.447 576.116,109.28 572,93.5C 567.333,76.8333 567.333,60.1667 572,43.5C 578.847,23.1448 592.68,10.8114 613.5,6.5 Z"/></g>
<g><path style="opacity:0.931" fill="#3987c6" d="M 736.5,-0.5 C 743.5,-0.5 750.5,-0.5 757.5,-0.5C 764.469,1.23069 770.969,4.23069 777,8.5C 775.229,13.9977 773.729,19.6644 772.5,25.5C 771.167,25.5 769.833,25.5 768.5,25.5C 763.056,11.1083 752.723,5.60832 737.5,9C 722.95,15.6048 718.45,26.4381 724,41.5C 725.793,44.2953 727.96,46.7953 730.5,49C 742.227,55.1965 754.227,60.8632 766.5,66C 782.249,77.2556 786.749,92.0889 780,110.5C 770.807,128.94 755.807,138.274 735,138.5C 722.753,138.418 711.753,134.751 702,127.5C 703.854,121.389 705.021,115.055 705.5,108.5C 706.552,108.351 707.552,108.517 708.5,109C 720.283,128.262 736.283,132.929 756.5,123C 770.469,108.145 769.802,94.1452 754.5,81C 742.452,76.0965 730.786,70.4298 719.5,64C 707.362,55.2023 702.862,43.369 706,28.5C 710.522,12.8091 720.689,3.14247 736.5,-0.5 Z"/></g>
<g><path style="opacity:1" fill="#1e6db5" d="M 41.5,1.5 C 54.5,1.5 67.5,1.5 80.5,1.5C 111.167,19.5 141.833,37.5 172.5,55.5C 165.831,58.8413 159.831,63.1746 154.5,68.5C 154.063,66.9256 153.063,65.7589 151.5,65C 114.607,44.0591 77.9404,22.8924 41.5,1.5 Z"/></g>
<g><path style="opacity:0.996" fill="#1766b1" d="M 80.5,1.5 C 174.501,1.33334 268.501,1.5 362.5,2C 380.637,7.13775 391.471,18.9711 395,37.5C 395.5,82.8321 395.667,128.165 395.5,173.5C 347.194,145.678 298.861,117.845 250.5,90C 247.141,88.5129 244.475,86.3462 242.5,83.5C 243.454,77.8035 245.121,72.3035 247.5,67C 240.944,61.0553 233.277,57.222 224.5,55.5C 221.264,54.1347 217.931,53.1347 214.5,52.5C 204.841,49.9348 195.174,49.9348 185.5,52.5C 181.12,53.2934 176.786,54.2934 172.5,55.5C 141.833,37.5 111.167,19.5 80.5,1.5 Z"/></g>
<g><path style="opacity:0.926" fill="#3987c6" d="M 1067.5,2.5 C 1071.82,2.10191 1074.32,4.10191 1075,8.5C 1092.82,51.7877 1111.32,94.7877 1130.5,137.5C 1123.48,137.552 1116.48,137.552 1109.5,137.5C 1103.03,120.754 1096.36,104.087 1089.5,87.5C 1072.94,86.1761 1056.44,86.1761 1040,87.5C 1032.74,104.115 1026.57,121.115 1021.5,138.5C 1016.17,137.432 1010.84,137.265 1005.5,138C 1026.46,92.9477 1047.13,47.781 1067.5,2.5 Z M 1064.5,30.5 C 1071.97,45.7057 1078.97,61.2057 1085.5,77C 1071.82,77.8327 1058.15,77.6661 1044.5,76.5C 1051.37,61.225 1058.03,45.8917 1064.5,30.5 Z"/></g>
<g><path style="opacity:0.997" fill="#2574b9" d="M 41.5,1.5 C 77.9404,22.8924 114.607,44.0591 151.5,65C 153.063,65.7589 154.063,66.9256 154.5,68.5C 150.409,73.0209 147.076,78.0209 144.5,83.5C 141.676,80.5348 138.343,78.0348 134.5,76C 95.4053,54.0356 56.7386,31.5356 18.5,8.5C 25.2896,3.57227 32.9562,1.23893 41.5,1.5 Z"/></g>
<g><path style="opacity:0.954" fill="#3987c6" d="M 417.5,4.5 C 424.159,5.70317 430.825,5.70317 437.5,4.5C 436.662,23.4913 435.995,42.4913 435.5,61.5C 462.5,61.5 489.5,61.5 516.5,61.5C 516.681,42.4574 516.014,23.4574 514.5,4.5C 521.5,5.83333 528.5,5.83333 535.5,4.5C 532.847,49.1623 532.847,93.8289 535.5,138.5C 528.5,137.167 521.5,137.167 514.5,138.5C 516.201,115.879 516.868,93.2124 516.5,70.5C 489.5,70.5 462.5,70.5 435.5,70.5C 435.691,93.1834 436.358,115.85 437.5,138.5C 430.828,137.226 424.161,137.226 417.5,138.5C 420.167,93.8327 420.167,49.166 417.5,4.5 Z"/></g>
<g><path style="opacity:0.94" fill="#3987c6" d="M 797.5,4.5 C 816.144,4.73482 834.81,4.90149 853.5,5C 873.798,6.46413 884.465,17.2975 885.5,37.5C 883.35,59.4846 871.35,72.3179 849.5,76C 838.54,77.2851 827.54,77.7851 816.5,77.5C 816.098,97.568 816.765,117.568 818.5,137.5C 811.549,137.182 804.549,137.515 797.5,138.5C 800.108,93.8272 800.108,49.1605 797.5,4.5 Z M 821.5,12.5 C 828.841,12.3337 836.174,12.5003 843.5,13C 858.354,15.0202 866.02,23.5202 866.5,38.5C 865.603,56.8995 855.936,67.0661 837.5,69C 830.508,69.4996 823.508,69.6663 816.5,69.5C 816.312,50.8193 816.645,32.1527 817.5,13.5C 819.099,13.7678 820.432,13.4345 821.5,12.5 Z"/></g>
<g><path style="opacity:0.945" fill="#3987c6" d="M 894.5,4.5 C 901.167,5.83333 907.833,5.83333 914.5,4.5C 911.869,49.1652 911.869,93.8318 914.5,138.5C 907.828,137.226 901.161,137.226 894.5,138.5C 895.833,93.8333 895.833,49.1667 894.5,4.5 Z"/></g>
<g><path style="opacity:0.942" fill="#3987c6" d="M 922.5,4.5 C 956.516,5.4802 990.516,5.81353 1024.5,5.5C 1023.19,9.36456 1023.19,13.1979 1024.5,17C 1010.87,16.2215 997.2,15.7215 983.5,15.5C 982.212,56.494 982.212,97.494 983.5,138.5C 976.839,137.226 970.172,137.226 963.5,138.5C 965.73,97.5254 966.063,56.5254 964.5,15.5C 950.479,15.7975 936.479,16.4641 922.5,17.5C 923.833,13.1667 923.833,8.83333 922.5,4.5 Z"/></g>
<g><path style="opacity:0.951" fill="#3987c6" d="M 1136.5,4.5 C 1143.18,5.61526 1149.85,5.61526 1156.5,4.5C 1154.07,45.846 1154.07,87.1794 1156.5,128.5C 1173.25,128.881 1189.92,127.881 1206.5,125.5C 1207.5,125.833 1208.5,126.167 1209.5,126.5C 1208.17,130.167 1208.17,133.833 1209.5,137.5C 1185.18,137.183 1160.85,137.516 1136.5,138.5C 1139.11,93.8312 1139.11,49.1646 1136.5,4.5 Z"/></g>
<g><path style="opacity:0.997" fill="#2b7abd" d="M 18.5,8.5 C 56.7386,31.5356 95.4053,54.0356 134.5,76C 138.343,78.0348 141.676,80.5348 144.5,83.5C 143.213,86.698 142.547,90.0314 142.5,93.5C 141.515,97.6344 141.182,101.968 141.5,106.5C 140.931,103.937 139.597,101.77 137.5,100C 93.1392,74.4882 48.8059,48.9882 4.5,23.5C 7.78308,17.2166 12.4497,12.2166 18.5,8.5 Z"/></g>
<g><path style="opacity:0.997" fill="#3280c1" d="M 4.5,23.5 C 48.8059,48.9882 93.1392,74.4882 137.5,100C 139.597,101.77 140.931,103.937 141.5,106.5C 141.475,113.089 143.142,119.089 146.5,124.5C 146.975,126.784 147.975,128.784 149.5,130.5C 99.5274,101.845 49.5274,73.1785 -0.5,44.5C -0.5,42.8333 -0.5,41.1667 -0.5,39.5C 0.530943,34.0646 2.19761,28.7312 4.5,23.5 Z"/></g>
<g><path style="opacity:1" fill="#455e71" d="M 214.5,52.5 C 207.833,52.5 201.167,52.5 194.5,52.5C 191.5,52.5 188.5,52.5 185.5,52.5C 195.174,49.9348 204.841,49.9348 214.5,52.5 Z"/></g>
<g><path style="opacity:1" fill="#fcfdfd" d="M 194.5,53.5 C 204.552,53.5049 214.552,54.1716 224.5,55.5C 233.277,57.222 240.944,61.0553 247.5,67C 245.121,72.3035 243.454,77.8035 242.5,83.5C 241.076,85.5145 240.41,87.8478 240.5,90.5C 238.142,90.7475 236.142,90.0808 234.5,88.5C 234.347,82.6685 231.68,78.3352 226.5,75.5C 217.747,66.3618 207.081,63.0285 194.5,65.5C 189.236,66.7986 184.569,69.1319 180.5,72.5C 178.5,73.8333 176.833,75.5 175.5,77.5C 173.076,80.0078 171.41,83.0078 170.5,86.5C 166.504,94.1492 166.504,101.816 170.5,109.5C 173.1,117.276 178.1,123.109 185.5,127C 197.93,133.216 210.597,138.882 223.5,144C 239.701,151.026 250.368,162.859 255.5,179.5C 255.5,183.833 255.5,188.167 255.5,192.5C 254.793,195.786 254.46,199.119 254.5,202.5C 252.744,208.019 250.41,213.353 247.5,218.5C 243.833,221.5 240.5,224.833 237.5,228.5C 233.527,230.487 229.527,232.487 225.5,234.5C 221.404,235.601 218.07,236.934 215.5,238.5C 217.905,239.768 220.572,240.435 223.5,240.5C 237.99,244.165 249.49,252.165 258,264.5C 259.759,268.009 260.926,271.675 261.5,275.5C 262.392,280.438 262.726,285.438 262.5,290.5C 261.349,294.772 260.349,299.106 259.5,303.5C 256.862,308.099 254.196,312.766 251.5,317.5C 246.407,323.251 240.407,327.918 233.5,331.5C 227.64,334.439 221.64,336.773 215.5,338.5C 206.217,339.895 196.884,340.895 187.5,341.5C 177.844,340.908 168.178,340.575 158.5,340.5C 151.5,340.5 144.5,340.5 137.5,340.5C 139.048,308.695 139.715,276.862 139.5,245C 139.5,221.331 139.167,197.831 138.5,174.5C 138.5,170.167 138.5,165.833 138.5,161.5C 146.359,165.682 154.193,170.015 162,174.5C 162.5,191.83 162.667,209.163 162.5,226.5C 162.5,228.833 162.5,231.167 162.5,233.5C 162.5,233.833 162.5,234.167 162.5,234.5C 179.163,236.314 195.496,234.314 211.5,228.5C 220.375,224.483 226.208,217.816 229,208.5C 229.667,200.833 229.667,193.167 229,185.5C 228.284,183.121 227.117,181.121 225.5,179.5C 223.57,175.9 220.903,172.9 217.5,170.5C 203.446,163.198 189.113,156.364 174.5,150C 169.121,146.983 164.121,143.483 159.5,139.5C 156.856,136.52 154.189,133.52 151.5,130.5C 149.822,127.104 148.155,123.77 146.5,120.5C 146.326,118.139 145.993,115.806 145.5,113.5C 145.334,107.158 145.5,100.825 146,94.5C 148.492,88.0058 151.158,81.6725 154,75.5C 159.062,70.2694 164.229,65.2694 169.5,60.5C 175.146,58.3466 180.812,56.1799 186.5,54C 189.146,53.5026 191.813,53.3359 194.5,53.5 Z"/></g>
<g><path style="opacity:1" fill="#d4dadd" d="M 194.5,53.5 C 194.5,53.1667 194.5,52.8333 194.5,52.5C 201.167,52.5 207.833,52.5 214.5,52.5C 217.931,53.1347 221.264,54.1347 224.5,55.5C 214.552,54.1716 204.552,53.5049 194.5,53.5 Z"/></g>
<g><path style="opacity:0.997" fill="#3987c5" d="M -0.5,44.5 C 49.5274,73.1785 99.5274,101.845 149.5,130.5C 152.231,134.234 155.564,137.234 159.5,139.5C 164.121,143.483 169.121,146.983 174.5,150C 189.113,156.364 203.446,163.198 217.5,170.5C 218.786,173.117 220.453,175.45 222.5,177.5C 224.877,183.597 225.877,189.93 225.5,196.5C 149.868,153.684 74.5343,110.351 -0.5,66.5C -0.5,59.1667 -0.5,51.8333 -0.5,44.5 Z"/></g>
<g><path style="opacity:1" fill="#7f909a" d="M 185.5,52.5 C 188.5,52.5 191.5,52.5 194.5,52.5C 194.5,52.8333 194.5,53.1667 194.5,53.5C 191.813,53.3359 189.146,53.5026 186.5,54C 180.812,56.1799 175.146,58.3466 169.5,60.5C 174.535,57.2642 179.869,54.5975 185.5,52.5 Z"/></g>
<g><path style="opacity:0.997" fill="#1a68b2" d="M 226.5,75.5 C 228.418,80.3434 231.084,84.6767 234.5,88.5C 236.142,90.0808 238.142,90.7475 240.5,90.5C 240.41,87.8478 241.076,85.5145 242.5,83.5C 244.475,86.3462 247.141,88.5129 250.5,90C 298.861,117.845 347.194,145.678 395.5,173.5C 395.5,176.833 395.5,180.167 395.5,183.5C 328.527,145.012 261.527,106.512 194.5,68C 193.402,67.2303 193.402,66.397 194.5,65.5C 207.081,63.0285 217.747,66.3618 226.5,75.5 Z"/></g>
<g><path style="opacity:0.996" fill="#3c8ac8" d="M -0.5,66.5 C 74.5343,110.351 149.868,153.684 225.5,196.5C 225.841,200.16 225.175,203.493 223.5,206.5C 149.132,162.983 74.4658,119.983 -0.5,77.5C -0.5,73.8333 -0.5,70.1667 -0.5,66.5 Z"/></g>
<g><path style="opacity:1" fill="#294658" d="M 185.5,52.5 C 179.869,54.5975 174.535,57.2642 169.5,60.5C 168.833,60.5 168.167,60.5 167.5,60.5C 161.641,63.8464 156.474,68.1797 152,73.5C 148.523,80.1159 145.357,86.7825 142.5,93.5C 142.547,90.0314 143.213,86.698 144.5,83.5C 147.076,78.0209 150.409,73.0209 154.5,68.5C 159.831,63.1746 165.831,58.8413 172.5,55.5C 176.786,54.2934 181.12,53.2934 185.5,52.5 Z"/></g>
<g><path style="opacity:0.998" fill="#1d6cb4" d="M 194.5,65.5 C 193.402,66.397 193.402,67.2303 194.5,68C 261.527,106.512 328.527,145.012 395.5,183.5C 395.5,187.833 395.5,192.167 395.5,196.5C 323.335,155.921 251.669,114.588 180.5,72.5C 184.569,69.1319 189.236,66.7986 194.5,65.5 Z"/></g>
<g><path style="opacity:1" fill="#adb7be" d="M 167.5,60.5 C 168.167,60.5 168.833,60.5 169.5,60.5C 164.229,65.2694 159.062,70.2694 154,75.5C 151.158,81.6725 148.492,88.0058 146,94.5C 145.5,100.825 145.334,107.158 145.5,113.5C 144.345,106.345 144.178,99.0118 145,91.5C 147.867,85.884 150.534,80.2173 153,74.5C 157.729,69.6025 162.562,64.9359 167.5,60.5 Z"/></g>
<g><path style="opacity:0.998" fill="#206fb7" d="M 180.5,72.5 C 251.669,114.588 323.335,155.921 395.5,196.5C 395.5,199.5 395.5,202.5 395.5,205.5C 324.725,165.276 254.058,124.776 183.5,84C 180.141,82.5129 177.475,80.3462 175.5,77.5C 176.833,75.5 178.5,73.8333 180.5,72.5 Z"/></g>
<g><path style="opacity:0.996" fill="#418eca" d="M -0.5,77.5 C 74.4658,119.983 149.132,162.983 223.5,206.5C 223.167,208.5 222.833,210.5 222.5,212.5C 220.167,215.167 217.833,217.833 215.5,220.5C 198.436,214.812 181.103,210.145 163.5,206.5C 163.824,213.354 163.491,220.021 162.5,226.5C 162.667,209.163 162.5,191.83 162,174.5C 154.193,170.015 146.359,165.682 138.5,161.5C 138.158,160.662 137.492,160.328 136.5,160.5C 136.44,159.957 136.107,159.624 135.5,159.5C 134.513,162.768 134.18,166.102 134.5,169.5C 133.776,167.782 133.109,165.948 132.5,164C 88.1392,138.488 43.8059,112.988 -0.5,87.5C -0.5,84.1667 -0.5,80.8333 -0.5,77.5 Z"/></g>
<g><path style="opacity:0.998" fill="#2372b8" d="M 175.5,77.5 C 177.475,80.3462 180.141,82.5129 183.5,84C 254.058,124.776 324.725,165.276 395.5,205.5C 395.5,209.5 395.5,213.5 395.5,217.5C 323.221,176.024 250.888,134.524 178.5,93C 175.141,91.5129 172.475,89.3462 170.5,86.5C 171.41,83.0078 173.076,80.0078 175.5,77.5 Z"/></g>
<g><path style="opacity:1" fill="#627685" d="M 226.5,75.5 C 231.68,78.3352 234.347,82.6685 234.5,88.5C 231.084,84.6767 228.418,80.3434 226.5,75.5 Z"/></g>
<g><path style="opacity:0.998" fill="#2977bb" d="M 170.5,86.5 C 172.475,89.3462 175.141,91.5129 178.5,93C 250.888,134.524 323.221,176.024 395.5,217.5C 395.5,224.5 395.5,231.5 395.5,238.5C 320.636,195.235 245.636,152.235 170.5,109.5C 166.504,101.816 166.504,94.1492 170.5,86.5 Z"/></g>
<g><path style="opacity:0.994" fill="#4592cd" d="M -0.5,87.5 C 43.8059,112.988 88.1392,138.488 132.5,164C 133.109,165.948 133.776,167.782 134.5,169.5C 134.5,174.833 134.5,180.167 134.5,185.5C 134.5,186.167 134.5,186.833 134.5,187.5C 89.6353,161.569 44.6353,135.902 -0.5,110.5C -0.5,102.833 -0.5,95.1667 -0.5,87.5 Z"/></g>
<g><path style="opacity:1" fill="#607481" d="M 167.5,60.5 C 162.562,64.9359 157.729,69.6025 153,74.5C 150.534,80.2173 147.867,85.884 145,91.5C 144.178,99.0118 144.345,106.345 145.5,113.5C 145.993,115.806 146.326,118.139 146.5,120.5C 145.883,120.389 145.383,120.056 145,119.5C 142.924,110.958 142.091,102.291 142.5,93.5C 145.357,86.7825 148.523,80.1159 152,73.5C 156.474,68.1797 161.641,63.8464 167.5,60.5 Z"/></g>
<g><path style="opacity:0.998" fill="#2e7cbe" d="M 170.5,109.5 C 245.636,152.235 320.636,195.235 395.5,238.5C 395.5,245.5 395.5,252.5 395.5,259.5C 349.074,232.406 302.407,205.739 255.5,179.5C 250.368,162.859 239.701,151.026 223.5,144C 210.597,138.882 197.93,133.216 185.5,127C 178.1,123.109 173.1,117.276 170.5,109.5 Z"/></g>
<g><path style="opacity:0.994" fill="#4b99d1" d="M -0.5,110.5 C 44.6353,135.902 89.6353,161.569 134.5,187.5C 134.5,191.5 134.5,195.5 134.5,199.5C 121.978,198.282 109.644,196.615 97.5,194.5C 102.22,194.775 102.554,193.941 98.5,192C 65.5944,172.911 32.5944,154.078 -0.5,135.5C -0.5,127.167 -0.5,118.833 -0.5,110.5 Z"/></g>
<g><path style="opacity:1" fill="#284558" d="M 142.5,93.5 C 142.091,102.291 142.924,110.958 145,119.5C 145.383,120.056 145.883,120.389 146.5,120.5C 146.5,121.833 146.5,123.167 146.5,124.5C 143.142,119.089 141.475,113.089 141.5,106.5C 141.182,101.968 141.515,97.6344 142.5,93.5 Z"/></g>
<g><path style="opacity:1" fill="#5e7484" d="M 146.5,120.5 C 148.155,123.77 149.822,127.104 151.5,130.5C 154.189,133.52 156.856,136.52 159.5,139.5C 155.564,137.234 152.231,134.234 149.5,130.5C 147.975,128.784 146.975,126.784 146.5,124.5C 146.5,123.167 146.5,121.833 146.5,120.5 Z"/></g>
<g><path style="opacity:0.99" fill="#529fd5" d="M -0.5,135.5 C 32.5944,154.078 65.5944,172.911 98.5,192C 102.554,193.941 102.22,194.775 97.5,194.5C 87.1991,193.37 76.8657,192.703 66.5,192.5C 64.5,192.167 62.5,191.833 60.5,191.5C 40.6638,179.078 20.3304,167.412 -0.5,156.5C -0.5,149.5 -0.5,142.5 -0.5,135.5 Z"/></g>
<g><path style="opacity:0.943" fill="#3987c6" d="M 463.5,150.5 C 476.516,149.4 489.183,150.9 501.5,155C 505.922,156.941 509.922,159.441 513.5,162.5C 510.633,168.933 508.467,175.6 507,182.5C 505.667,183.833 504.333,183.833 503,182.5C 493.613,163.259 478.779,157.093 458.5,164C 443.678,173.156 439.178,185.989 445,202.5C 446.738,206.241 449.238,209.408 452.5,212C 459.513,216.508 466.847,220.508 474.5,224C 488.779,228.218 501.279,235.385 512,245.5C 525.766,271.438 521.599,294.271 499.5,314C 472.855,330.63 446.189,330.63 419.5,314C 418.833,313.333 418.167,312.667 417.5,312C 420.348,304.774 422.014,297.274 422.5,289.5C 423.873,289.343 425.207,289.51 426.5,290C 437.096,308.927 453.096,316.594 474.5,313C 493.163,306.531 501.33,293.365 499,273.5C 496.463,264.636 491.296,257.802 483.5,253C 471.047,247.607 458.714,241.94 446.5,236C 423.602,222.314 416.769,202.814 426,177.5C 434.173,162.496 446.673,153.496 463.5,150.5 Z"/></g>
<g><path style="opacity:0.947" fill="#3987c6" d="M 675.5,150.5 C 678.97,149.875 681.804,150.875 684,153.5C 722.6,196.103 761.934,238.103 802,279.5C 803.11,261.029 803.61,242.529 803.5,224C 803.672,200.453 803.005,176.953 801.5,153.5C 807.837,154.662 814.17,154.829 820.5,154C 817.623,181.366 816.123,208.866 816,236.5C 815.19,266.53 815.357,296.53 816.5,326.5C 814.396,326.799 812.396,326.466 810.5,325.5C 771.657,280.149 731.157,236.149 689,193.5C 687.847,210.078 687.347,226.745 687.5,243.5C 687.354,268.526 688.021,293.526 689.5,318.5C 689.167,320.167 688.833,321.833 688.5,323.5C 682.97,322.185 677.47,322.185 672,323.5C 674.926,265.891 676.093,208.224 675.5,150.5 Z"/></g>
<g><path style="opacity:0.947" fill="#3987c6" d="M 1108.5,150.5 C 1110.53,150.338 1112.53,150.505 1114.5,151C 1153.93,194.437 1194.1,237.27 1235,279.5C 1236.15,261.421 1236.65,243.254 1236.5,225C 1236.72,201.439 1236.05,177.939 1234.5,154.5C 1240.85,154.42 1247.18,154.42 1253.5,154.5C 1250.58,183.73 1249.08,213.063 1249,242.5C 1248.21,270.519 1248.38,298.519 1249.5,326.5C 1244.97,326.504 1241.47,324.504 1239,320.5C 1201.47,276.966 1162.47,234.632 1122,193.5C 1119.99,234.995 1120.16,276.495 1122.5,318C 1122.17,319.833 1121.83,321.667 1121.5,323.5C 1116.17,322.167 1110.83,322.167 1105.5,323.5C 1105.17,322 1104.83,320.5 1104.5,319C 1108.02,262.893 1109.35,206.727 1108.5,150.5 Z"/></g>
<g><path style="opacity:0.948" fill="#3987c6" d="M 1505.5,150.5 C 1530.94,147.632 1554.94,152.132 1577.5,164C 1599.23,178.609 1611.4,199.109 1614,225.5C 1618.65,257.793 1609.15,284.96 1585.5,307C 1566.41,320.609 1545.08,327.109 1521.5,326.5C 1457.18,324.02 1426.35,290.687 1429,226.5C 1433.24,188.935 1453.41,164.768 1489.5,154C 1494.95,152.745 1500.29,151.578 1505.5,150.5 Z M 1510.5,159.5 C 1552.05,156.581 1577.55,175.248 1587,215.5C 1589.5,233.639 1588.83,251.639 1585,269.5C 1575.22,300.432 1554.06,316.432 1521.5,317.5C 1484.97,315.326 1463.13,296.326 1456,260.5C 1451.32,235.314 1454.65,211.314 1466,188.5C 1476.71,172.403 1491.54,162.736 1510.5,159.5 Z"/></g>
<g><path style="opacity:0.942" fill="#3987c6" d="M 587.5,151.5 C 590.394,151.042 592.894,151.709 595,153.5C 618.29,210.203 642.457,266.536 667.5,322.5C 667.167,322.833 666.833,323.167 666.5,323.5C 657.904,322.56 649.404,322.227 641,322.5C 633.279,300.666 624.779,279.166 615.5,258C 594.83,256.133 574.163,256.133 553.5,258C 544.093,278.989 535.926,300.489 529,322.5C 523.258,322.26 517.424,322.594 511.5,323.5C 511.167,323 510.833,322.5 510.5,322C 536.592,265.319 562.259,208.485 587.5,151.5 Z M 584.5,185.5 C 593.537,205.083 602.204,224.917 610.5,245C 593.167,247 575.833,247 558.5,245C 567.46,225.284 576.127,205.45 584.5,185.5 Z"/></g>
<g><path style="opacity:0.949" fill="#3987c6" d="M 867.5,153.5 C 891.504,153.171 915.504,153.671 939.5,155C 967.324,159.836 977.824,176.003 971,203.5C 964.207,218.49 952.707,227.657 936.5,231C 947.855,233.004 958.188,237.337 967.5,244C 977.73,254.071 981.564,266.238 979,280.5C 974.487,300.015 962.654,312.849 943.5,319C 932.684,321.787 921.684,323.287 910.5,323.5C 896.465,322.306 882.465,322.306 868.5,323.5C 868.167,321.667 867.833,319.833 867.5,318C 870.146,263.149 870.146,208.316 867.5,153.5 Z M 896.5,163.5 C 904.507,163.334 912.507,163.5 920.5,164C 944.044,167.552 953.544,181.052 949,204.5C 946.885,211.568 942.718,217.068 936.5,221C 921.838,227.357 906.504,229.857 890.5,228.5C 890.2,207.133 890.533,185.8 891.5,164.5C 893.415,164.784 895.081,164.451 896.5,163.5 Z M 901.5,237.5 C 910.558,237.727 919.558,238.56 928.5,240C 949.27,245.473 958.103,258.973 955,280.5C 950.965,298.534 939.798,309.034 921.5,312C 911.466,312.758 901.466,312.591 891.5,311.5C 890.606,287.18 890.273,262.846 890.5,238.5C 894.371,238.815 898.038,238.482 901.5,237.5 Z"/></g>
<g><path style="opacity:0.953" fill="#3987c6" d="M 999.5,153.5 C 1028.83,154.813 1058.17,154.813 1087.5,153.5C 1086.33,158.487 1086.33,163.487 1087.5,168.5C 1066.2,167.019 1044.86,166.353 1023.5,166.5C 1022.69,186.828 1022.02,207.161 1021.5,227.5C 1041.54,227.78 1061.54,227.113 1081.5,225.5C 1080.68,230.889 1080.35,236.222 1080.5,241.5C 1060.9,239.818 1041.23,239.151 1021.5,239.5C 1021.47,263.173 1021.8,286.84 1022.5,310.5C 1044.55,310.517 1066.55,309.517 1088.5,307.5C 1088.5,312.833 1088.5,318.167 1088.5,323.5C 1058.49,322.191 1028.49,322.191 998.5,323.5C 1000.7,266.846 1001.03,210.179 999.5,153.5 Z"/></g>
<g><path style="opacity:0.96" fill="#3987c6" d="M 1278.5,153.5 C 1286.84,154.786 1295.17,154.786 1303.5,153.5C 1300.85,207.665 1300.85,261.832 1303.5,316C 1303.17,318.5 1302.83,321 1302.5,323.5C 1294.83,322.167 1287.17,322.167 1279.5,323.5C 1279.17,322 1278.83,320.5 1278.5,319C 1281.15,263.833 1281.15,208.666 1278.5,153.5 Z"/></g>
<g><path style="opacity:0.95" fill="#3987c6" d="M 1311.5,153.5 C 1354.5,154.654 1397.5,154.821 1440.5,154C 1438.18,159.335 1437.84,164.835 1439.5,170.5C 1422.26,168.173 1404.93,167.173 1387.5,167.5C 1386.24,219.544 1386.24,271.544 1387.5,323.5C 1379.83,322.167 1372.17,322.167 1364.5,323.5C 1364.17,321.667 1363.83,319.833 1363.5,318C 1365.76,267.849 1366.09,217.683 1364.5,167.5C 1346.76,167.47 1329.09,168.47 1311.5,170.5C 1311.5,164.833 1311.5,159.167 1311.5,153.5 Z"/></g>
<g><path style="opacity:0.981" fill="#58a5d9" d="M -0.5,156.5 C 20.3304,167.412 40.6638,179.078 60.5,191.5C 56.5,191.5 52.5,191.5 48.5,191.5C 32.6277,190.19 16.6277,190.19 0.5,191.5C 0.166667,191.5 -0.166667,191.5 -0.5,191.5C -0.5,179.833 -0.5,168.167 -0.5,156.5 Z"/></g>
<g><path style="opacity:1" fill="#6e8290" d="M 217.5,170.5 C 220.903,172.9 223.57,175.9 225.5,179.5C 225.5,180.167 225.5,180.833 225.5,181.5C 224.857,179.924 223.857,178.59 222.5,177.5C 220.453,175.45 218.786,173.117 217.5,170.5 Z"/></g>
<g><path style="opacity:0.996" fill="#3381c2" d="M 255.5,179.5 C 302.407,205.739 349.074,232.406 395.5,259.5C 395.5,263.833 395.5,268.167 395.5,272.5C 348.861,245.845 302.194,219.179 255.5,192.5C 255.5,188.167 255.5,183.833 255.5,179.5 Z"/></g>
<g><path style="opacity:1" fill="#3a88c6" d="M 31.5,191.5 C 65.832,212.002 100.499,232.002 135.5,251.5C 135.83,268.009 135.496,284.342 134.5,300.5C 134.5,299.833 134.5,299.167 134.5,298.5C 134.5,293.167 134.5,287.833 134.5,282.5C 134.666,277.489 134.499,272.489 134,267.5C 90.7586,241.934 47.2586,216.767 3.5,192C 12.8274,191.5 22.1607,191.334 31.5,191.5 Z"/></g>
<g><path style="opacity:1" fill="#3583c3" d="M 31.5,191.5 C 37.1667,191.5 42.8333,191.5 48.5,191.5C 52.5,191.5 56.5,191.5 60.5,191.5C 62.5,191.833 64.5,192.167 66.5,192.5C 89.001,206.588 112.001,219.921 135.5,232.5C 135.5,238.833 135.5,245.167 135.5,251.5C 100.499,232.002 65.832,212.002 31.5,191.5 Z"/></g>
<g><path style="opacity:1" fill="#2d7bbd" d="M 134.5,185.5 C 135.496,200.991 135.83,216.658 135.5,232.5C 112.001,219.921 89.001,206.588 66.5,192.5C 76.8657,192.703 87.1991,193.37 97.5,194.5C 109.644,196.615 121.978,198.282 134.5,199.5C 134.5,195.5 134.5,191.5 134.5,187.5C 134.5,186.833 134.5,186.167 134.5,185.5 Z"/></g>
<g><path style="opacity:0.996" fill="#3785c4" d="M 255.5,192.5 C 302.194,219.179 348.861,245.845 395.5,272.5C 395.5,276.5 395.5,280.5 395.5,284.5C 348,257.921 301,230.587 254.5,202.5C 254.46,199.119 254.793,195.786 255.5,192.5 Z"/></g>
<g><path style="opacity:1" fill="#6b7f8a" d="M 225.5,181.5 C 226.6,183.277 227.434,185.277 228,187.5C 228.667,194.167 228.667,200.833 228,207.5C 226.3,211.857 223.966,215.857 221,219.5C 218.823,222.523 215.989,224.523 212.5,225.5C 217.327,222.337 220.66,218.004 222.5,212.5C 224.689,210.776 225.856,208.442 226,205.5C 226.698,197.472 226.532,189.472 225.5,181.5 Z"/></g>
<g><path style="opacity:1" fill="#428fcb" d="M 48.5,191.5 C 42.8333,191.5 37.1667,191.5 31.5,191.5C 22.1607,191.334 12.8274,191.5 3.5,192C 47.2586,216.767 90.7586,241.934 134,267.5C 134.499,272.489 134.666,277.489 134.5,282.5C 89.8333,257.167 45.1667,231.833 0.5,206.5C 0.5,201.5 0.5,196.5 0.5,191.5C 16.6277,190.19 32.6277,190.19 48.5,191.5 Z"/></g>
<g><path style="opacity:1" fill="#1f4055" d="M 222.5,177.5 C 223.857,178.59 224.857,179.924 225.5,181.5C 226.532,189.472 226.698,197.472 226,205.5C 225.856,208.442 224.689,210.776 222.5,212.5C 222.833,210.5 223.167,208.5 223.5,206.5C 225.175,203.493 225.841,200.16 225.5,196.5C 225.877,189.93 224.877,183.597 222.5,177.5 Z"/></g>
<g><path style="opacity:1" fill="#234052" d="M 136.5,160.5 C 136.667,210.501 136.5,260.501 136,310.5C 135.79,320.04 134.957,329.373 133.5,338.5C 132.774,334.679 132.774,330.679 133.5,326.5C 133.98,321.178 134.313,315.845 134.5,310.5C 134.5,307.167 134.5,303.833 134.5,300.5C 135.496,284.342 135.83,268.009 135.5,251.5C 135.5,245.167 135.5,238.833 135.5,232.5C 135.83,216.658 135.496,200.991 134.5,185.5C 134.5,180.167 134.5,174.833 134.5,169.5C 134.18,166.102 134.513,162.768 135.5,159.5C 136.107,159.624 136.44,159.957 136.5,160.5 Z"/></g>
<g><path style="opacity:1" fill="#2371b7" d="M 215.5,220.5 C 212.07,223.726 208.07,226.226 203.5,228C 198.044,229.527 192.711,231.027 187.5,232.5C 179.181,233.124 170.848,233.457 162.5,233.5C 162.5,231.167 162.5,228.833 162.5,226.5C 163.491,220.021 163.824,213.354 163.5,206.5C 181.103,210.145 198.436,214.812 215.5,220.5 Z"/></g>
<g><path style="opacity:0.996" fill="#3c8ac7" d="M 254.5,202.5 C 301,230.587 348,257.921 395.5,284.5C 395.5,291.5 395.5,298.5 395.5,305.5C 346.527,277.345 297.527,249.178 248.5,221C 247.748,220.329 247.414,219.496 247.5,218.5C 250.41,213.353 252.744,208.019 254.5,202.5 Z"/></g>
<g><path style="opacity:1" fill="#4895cf" d="M 0.5,206.5 C 45.1667,231.833 89.8333,257.167 134.5,282.5C 134.5,287.833 134.5,293.167 134.5,298.5C 90.0719,273.255 45.7386,247.755 1.5,222C 0.528649,216.928 0.195316,211.762 0.5,206.5 Z"/></g>
<g><path style="opacity:1" fill="#687c88" d="M 136.5,160.5 C 137.492,160.328 138.158,160.662 138.5,161.5C 138.5,165.833 138.5,170.167 138.5,174.5C 138.988,229.854 138.322,285.188 136.5,340.5C 135.29,340.068 134.29,339.401 133.5,338.5C 134.957,329.373 135.79,320.04 136,310.5C 136.5,260.501 136.667,210.501 136.5,160.5 Z"/></g>
<g><path style="opacity:1" fill="#284558" d="M 222.5,212.5 C 220.66,218.004 217.327,222.337 212.5,225.5C 204.793,229.845 196.46,232.178 187.5,232.5C 192.711,231.027 198.044,229.527 203.5,228C 208.07,226.226 212.07,223.726 215.5,220.5C 217.833,217.833 220.167,215.167 222.5,212.5 Z"/></g>
<g><path style="opacity:0.996" fill="#408eca" d="M 247.5,218.5 C 247.414,219.496 247.748,220.329 248.5,221C 297.527,249.178 346.527,277.345 395.5,305.5C 395.5,317.167 395.5,328.833 395.5,340.5C 395.167,340.5 394.833,340.5 394.5,340.5C 390.177,334.845 385.51,329.512 380.5,324.5C 353.371,293.87 321.704,269.036 285.5,250C 269.829,241.996 253.829,234.829 237.5,228.5C 240.5,224.833 243.833,221.5 247.5,218.5 Z"/></g>
<g><path style="opacity:1" fill="#b4bec4" d="M 225.5,179.5 C 227.117,181.121 228.284,183.121 229,185.5C 229.667,193.167 229.667,200.833 229,208.5C 226.208,217.816 220.375,224.483 211.5,228.5C 212.11,227.609 212.443,226.609 212.5,225.5C 215.989,224.523 218.823,222.523 221,219.5C 223.966,215.857 226.3,211.857 228,207.5C 228.667,200.833 228.667,194.167 228,187.5C 227.434,185.277 226.6,183.277 225.5,181.5C 225.5,180.833 225.5,180.167 225.5,179.5 Z"/></g>
<g><path style="opacity:1" fill="#4d9ad2" d="M -0.5,191.5 C -0.166667,191.5 0.166667,191.5 0.5,191.5C 0.5,196.5 0.5,201.5 0.5,206.5C 0.195316,211.762 0.528649,216.928 1.5,222C 45.7386,247.755 90.0719,273.255 134.5,298.5C 134.5,299.167 134.5,299.833 134.5,300.5C 134.5,303.833 134.5,307.167 134.5,310.5C 89.8333,285.167 45.1667,259.833 0.5,234.5C 0.816751,230.298 0.483418,226.298 -0.5,222.5C -0.5,212.167 -0.5,201.833 -0.5,191.5 Z"/></g>
<g><path style="opacity:1" fill="#1c6bb4" d="M 237.5,228.5 C 253.829,234.829 269.829,241.996 285.5,250C 321.704,269.036 353.371,293.87 380.5,324.5C 328.334,295.254 276.667,265.254 225.5,234.5C 229.527,232.487 233.527,230.487 237.5,228.5 Z"/></g>
<g><path style="opacity:1" fill="#2d4a5b" d="M 187.5,232.5 C 179.401,234.231 171.068,234.898 162.5,234.5C 162.5,234.167 162.5,233.833 162.5,233.5C 170.848,233.457 179.181,233.124 187.5,232.5 Z"/></g>
<g><path style="opacity:1" fill="#86969f" d="M 212.5,225.5 C 212.443,226.609 212.11,227.609 211.5,228.5C 195.496,234.314 179.163,236.314 162.5,234.5C 171.068,234.898 179.401,234.231 187.5,232.5C 196.46,232.178 204.793,229.845 212.5,225.5 Z"/></g>
<g><path style="opacity:1" fill="#4f697f" d="M 215.5,238.5 C 218.495,238.294 221.162,238.96 223.5,240.5C 220.572,240.435 217.905,239.768 215.5,238.5 Z"/></g>
<g><path style="opacity:1" fill="#529fd5" d="M 0.5,234.5 C 45.1667,259.833 89.8333,285.167 134.5,310.5C 134.313,315.845 133.98,321.178 133.5,326.5C 89.0031,301.086 44.6697,275.419 0.5,249.5C 0.5,244.5 0.5,239.5 0.5,234.5 Z"/></g>
<g><path style="opacity:1" fill="#2b79bc" d="M 188.5,246.5 C 200.371,245.885 211.371,248.552 221.5,254.5C 224.421,258.674 227.087,263.007 229.5,267.5C 229.721,270.067 230.388,272.401 231.5,274.5C 231.5,276.5 231.5,278.5 231.5,280.5C 212.055,269.561 192.721,258.394 173.5,247C 178.489,246.501 183.489,246.334 188.5,246.5 Z"/></g>
<g><path style="opacity:1" fill="#3380c1" d="M 188.5,246.5 C 183.489,246.334 178.489,246.501 173.5,247C 192.721,258.394 212.055,269.561 231.5,280.5C 232.05,286.892 231.05,292.892 228.5,298.5C 228.586,297.504 228.252,296.671 227.5,296C 206.021,284.006 184.688,271.839 163.5,259.5C 163.5,255.167 163.5,250.833 163.5,246.5C 171.975,245.245 180.308,245.245 188.5,246.5 Z"/></g>
<g><path style="opacity:1" fill="#4c667a" d="M 221.5,254.5 C 224.903,256.9 227.57,259.9 229.5,263.5C 229.5,264.833 229.5,266.167 229.5,267.5C 227.087,263.007 224.421,258.674 221.5,254.5 Z"/></g>
<g><path style="opacity:1" fill="#2271b8" d="M 225.5,234.5 C 276.667,265.254 328.334,295.254 380.5,324.5C 385.51,329.512 390.177,334.845 394.5,340.5C 394.82,343.898 394.487,347.232 393.5,350.5C 351.833,326.333 310.167,302.167 268.5,278C 266.35,276.589 264.016,275.755 261.5,275.5C 260.926,271.675 259.759,268.009 258,264.5C 249.49,252.165 237.99,244.165 223.5,240.5C 221.162,238.96 218.495,238.294 215.5,238.5C 218.07,236.934 221.404,235.601 225.5,234.5 Z"/></g>
<g><path style="opacity:1" fill="#59a7da" d="M 0.5,249.5 C 44.6697,275.419 89.0031,301.086 133.5,326.5C 132.774,330.679 132.774,334.679 133.5,338.5C 134.29,339.401 135.29,340.068 136.5,340.5C 136.833,340.5 137.167,340.5 137.5,340.5C 144.5,340.5 151.5,340.5 158.5,340.5C 186.833,357.167 215.167,373.833 243.5,390.5C 231.167,390.5 218.833,390.5 206.5,390.5C 138.393,350.608 70.06,310.941 1.5,271.5C 0.502739,264.197 0.169406,256.863 0.5,249.5 Z"/></g>
<g><path style="opacity:1" fill="#3886c5" d="M 163.5,259.5 C 184.688,271.839 206.021,284.006 227.5,296C 228.252,296.671 228.586,297.504 228.5,298.5C 227.54,303.086 225.54,307.086 222.5,310.5C 203.032,298.929 183.365,287.596 163.5,276.5C 163.5,270.833 163.5,265.167 163.5,259.5 Z"/></g>
<g><path style="opacity:1" fill="#60adde" d="M -0.5,222.5 C 0.483418,226.298 0.816751,230.298 0.5,234.5C 0.5,239.5 0.5,244.5 0.5,249.5C 0.169406,256.863 0.502739,264.197 1.5,271.5C 70.06,310.941 138.393,350.608 206.5,390.5C 196.167,390.5 185.833,390.5 175.5,390.5C 117.563,356.86 59.5629,323.193 1.5,289.5C 0.833192,284.015 0.166525,278.681 -0.5,273.5C -0.5,256.5 -0.5,239.5 -0.5,222.5 Z"/></g>
<g><path style="opacity:1" fill="#bcc5ca" d="M 138.5,174.5 C 139.167,197.831 139.5,221.331 139.5,245C 139.715,276.862 139.048,308.695 137.5,340.5C 137.167,340.5 136.833,340.5 136.5,340.5C 138.322,285.188 138.988,229.854 138.5,174.5 Z"/></g>
<g><path style="opacity:1" fill="#4a6270" d="M 229.5,267.5 C 231.588,269.336 232.921,271.669 233.5,274.5C 233.821,279.695 233.487,284.695 232.5,289.5C 232.821,284.305 232.487,279.305 231.5,274.5C 230.388,272.401 229.721,270.067 229.5,267.5 Z"/></g>
<g><path style="opacity:1" fill="#3d8bc8" d="M 163.5,276.5 C 183.365,287.596 203.032,298.929 222.5,310.5C 219.457,314.544 215.791,317.877 211.5,320.5C 196.062,310.941 180.395,301.608 164.5,292.5C 163.505,287.208 163.172,281.875 163.5,276.5 Z"/></g>
<g><path style="opacity:1" fill="#aeb8bf" d="M 229.5,263.5 C 232.081,266.32 233.914,269.654 235,273.5C 235.667,281.167 235.667,288.833 235,296.5C 234.059,298.727 232.892,300.727 231.5,302.5C 231.46,299.575 232.293,296.909 234,294.5C 234.821,287.654 234.654,280.987 233.5,274.5C 232.921,271.669 231.588,269.336 229.5,267.5C 229.5,266.167 229.5,264.833 229.5,263.5 Z"/></g>
<g><path style="opacity:1" fill="#2877bb" d="M 261.5,275.5 C 264.016,275.755 266.35,276.589 268.5,278C 310.167,302.167 351.833,326.333 393.5,350.5C 394.487,347.232 394.82,343.898 394.5,340.5C 394.833,340.5 395.167,340.5 395.5,340.5C 396.056,348.423 395.056,356.09 392.5,363.5C 390.806,364.686 389.139,364.519 387.5,363C 345.806,338.822 304.139,314.655 262.5,290.5C 262.726,285.438 262.392,280.438 261.5,275.5 Z"/></g>
<g><path style="opacity:1" fill="#66b3e1" d="M -0.5,273.5 C 0.166525,278.681 0.833192,284.015 1.5,289.5C 59.5629,323.193 117.563,356.86 175.5,390.5C 168.167,390.5 160.833,390.5 153.5,390.5C 102.699,360.596 51.6993,330.929 0.5,301.5C 0.794717,299.265 0.461384,297.265 -0.5,295.5C -0.5,288.167 -0.5,280.833 -0.5,273.5 Z"/></g>
<g><path style="opacity:1" fill="#6f828d" d="M 233.5,274.5 C 234.654,280.987 234.821,287.654 234,294.5C 232.293,296.909 231.46,299.575 231.5,302.5C 231.5,303.167 231.5,303.833 231.5,304.5C 230.147,306.183 228.48,307.516 226.5,308.5C 229.294,302.451 231.294,296.118 232.5,289.5C 233.487,284.695 233.821,279.695 233.5,274.5 Z"/></g>
<g><path style="opacity:1" fill="#2f7dbf" d="M 262.5,290.5 C 304.139,314.655 345.806,338.822 387.5,363C 389.139,364.519 390.806,364.686 392.5,363.5C 391.083,368.679 388.417,373.012 384.5,376.5C 342.306,352.909 300.639,328.575 259.5,303.5C 260.349,299.106 261.349,294.772 262.5,290.5 Z"/></g>
<g><path style="opacity:1" fill="#4894ce" d="M 163.5,246.5 C 163.5,250.833 163.5,255.167 163.5,259.5C 163.5,265.167 163.5,270.833 163.5,276.5C 163.172,281.875 163.505,287.208 164.5,292.5C 180.395,301.608 196.062,310.941 211.5,320.5C 210.5,320.833 209.833,321.5 209.5,322.5C 203.408,324.187 197.408,325.854 191.5,327.5C 182.167,327.5 172.833,327.5 163.5,327.5C 162.532,300.334 162.532,273.334 163.5,246.5 Z"/></g>
<g><path style="opacity:1" fill="#6bb8e5" d="M 0.5,301.5 C 51.6993,330.929 102.699,360.596 153.5,390.5C 144.5,390.5 135.5,390.5 126.5,390.5C 85.2236,365.855 43.557,341.688 1.5,318C 0.526761,312.593 0.193427,307.093 0.5,301.5 Z"/></g>
<g><path style="opacity:1" fill="#214054" d="M 231.5,274.5 C 232.487,279.305 232.821,284.305 232.5,289.5C 231.294,296.118 229.294,302.451 226.5,308.5C 223.065,312.438 219.398,316.271 215.5,320C 213.593,321.122 211.593,321.955 209.5,322.5C 209.833,321.5 210.5,320.833 211.5,320.5C 215.791,317.877 219.457,314.544 222.5,310.5C 225.54,307.086 227.54,303.086 228.5,298.5C 231.05,292.892 232.05,286.892 231.5,280.5C 231.5,278.5 231.5,276.5 231.5,274.5 Z"/></g>
<g><path style="opacity:1" fill="#3583c3" d="M 259.5,303.5 C 300.639,328.575 342.306,352.909 384.5,376.5C 381.077,381.042 376.743,384.375 371.5,386.5C 370.127,386.657 368.793,386.49 367.5,386C 329.33,363.747 290.996,341.747 252.5,320C 251.748,319.329 251.414,318.496 251.5,317.5C 254.196,312.766 256.862,308.099 259.5,303.5 Z"/></g>
<g><path style="opacity:1" fill="#a8b3ba" d="M 231.5,304.5 C 231.011,307.467 229.845,310.133 228,312.5C 223.867,315.631 220.034,319.131 216.5,323C 215.255,323.791 213.922,324.291 212.5,324.5C 216.771,320.731 220.938,316.731 225,312.5C 225.791,311.255 226.291,309.922 226.5,308.5C 228.48,307.516 230.147,306.183 231.5,304.5 Z"/></g>
<g><path style="opacity:1" fill="#72bee9" d="M -0.5,295.5 C 0.461384,297.265 0.794717,299.265 0.5,301.5C 0.193427,307.093 0.526761,312.593 1.5,318C 43.557,341.688 85.2236,365.855 126.5,390.5C 116.833,390.5 107.167,390.5 97.5,390.5C 65.7263,371.774 33.7263,353.274 1.5,335C 0.862185,331.065 0.195518,327.231 -0.5,323.5C -0.5,314.167 -0.5,304.833 -0.5,295.5 Z"/></g>
<g><path style="opacity:1" fill="#3d8bc8" d="M 251.5,317.5 C 251.414,318.496 251.748,319.329 252.5,320C 290.996,341.747 329.33,363.747 367.5,386C 368.793,386.49 370.127,386.657 371.5,386.5C 368.718,387.933 365.718,389.1 362.5,390C 352.839,390.5 343.172,390.666 333.5,390.5C 300.167,370.833 266.833,351.167 233.5,331.5C 240.407,327.918 246.407,323.251 251.5,317.5 Z"/></g>
<g><path style="opacity:1" fill="#2c4b5f" d="M 209.5,322.5 C 208.942,323.79 207.942,324.623 206.5,325C 201.588,326.416 196.588,327.249 191.5,327.5C 197.408,325.854 203.408,324.187 209.5,322.5 Z"/></g>
<g><path style="opacity:1" fill="#6a7d89" d="M 226.5,308.5 C 226.291,309.922 225.791,311.255 225,312.5C 220.938,316.731 216.771,320.731 212.5,324.5C 210.716,324.893 209.05,325.559 207.5,326.5C 196.302,328.9 184.969,329.9 173.5,329.5C 170.813,329.664 168.146,329.497 165.5,329C 164.584,328.722 163.918,328.222 163.5,327.5C 172.833,327.5 182.167,327.5 191.5,327.5C 196.588,327.249 201.588,326.416 206.5,325C 207.942,324.623 208.942,323.79 209.5,322.5C 211.593,321.955 213.593,321.122 215.5,320C 219.398,316.271 223.065,312.438 226.5,308.5 Z"/></g>
<g><path style="opacity:1" fill="#d0d6da" d="M 207.5,326.5 C 202.869,328.716 197.869,329.883 192.5,330C 185.986,330.82 179.653,330.653 173.5,329.5C 184.969,329.9 196.302,328.9 207.5,326.5 Z"/></g>
<g><path style="opacity:1" fill="#4593cd" d="M 233.5,331.5 C 266.833,351.167 300.167,370.833 333.5,390.5C 323.5,390.5 313.5,390.5 303.5,390.5C 274.167,373.167 244.833,355.833 215.5,338.5C 221.64,336.773 227.64,334.439 233.5,331.5 Z"/></g>
<g><path style="opacity:1" fill="#78c4ec" d="M -0.5,323.5 C 0.195518,327.231 0.862185,331.065 1.5,335C 33.7263,353.274 65.7263,371.774 97.5,390.5C 86.5,390.5 75.5,390.5 64.5,390.5C 43.202,378.182 21.8687,365.848 0.5,353.5C 0.5,352.833 0.166667,352.5 -0.5,352.5C -0.5,342.833 -0.5,333.167 -0.5,323.5 Z"/></g>
<g><path style="opacity:1" fill="#529fd5" d="M 158.5,340.5 C 168.178,340.575 177.844,340.908 187.5,341.5C 215.331,357.581 242.998,373.915 270.5,390.5C 261.5,390.5 252.5,390.5 243.5,390.5C 215.167,373.833 186.833,357.167 158.5,340.5 Z"/></g>
<g><path style="opacity:1" fill="#4c99d1" d="M 215.5,338.5 C 244.833,355.833 274.167,373.167 303.5,390.5C 292.5,390.5 281.5,390.5 270.5,390.5C 242.998,373.915 215.331,357.581 187.5,341.5C 196.884,340.895 206.217,339.895 215.5,338.5 Z"/></g>
<g><path style="opacity:0.715" fill="#3987c6" d="M 1558.5,340.5 C 1559.87,340.343 1561.21,340.51 1562.5,341C 1563.45,341.718 1563.62,342.551 1563,343.5C 1560.09,346.037 1556.93,348.204 1553.5,350C 1552.06,350.781 1550.72,350.614 1549.5,349.5C 1552.83,346.839 1555.83,343.839 1558.5,340.5 Z"/></g>
<g><path style="opacity:0.815" fill="#3987c6" d="M 638.5,392.5 C 633.5,392.5 628.5,392.5 623.5,392.5C 612.193,387.465 608.026,378.799 611,366.5C 614.359,357.05 621.192,352.383 631.5,352.5C 647.438,353.942 654.271,362.608 652,378.5C 649.983,385.682 645.483,390.348 638.5,392.5 Z M 628.5,355.5 C 636.438,354.883 641.938,358.216 645,365.5C 645.851,371.253 645.517,376.92 644,382.5C 636.651,391.861 628.651,392.527 620,384.5C 615.79,377.354 615.456,370.021 619,362.5C 621.529,359.115 624.696,356.782 628.5,355.5 Z"/></g>
<g><path style="opacity:0.802" fill="#3987c6" d="M 850.5,392.5 C 846.833,392.5 843.167,392.5 839.5,392.5C 835.233,390.739 834.4,387.739 837,383.5C 843.473,391.829 848.973,391.329 853.5,382C 853.01,380.018 852.01,378.351 850.5,377C 845.105,375.554 840.605,372.721 837,368.5C 834.71,359.082 838.376,353.749 848,352.5C 851.513,352.833 854.679,353.999 857.5,356C 856.782,357.987 855.782,359.821 854.5,361.5C 852.54,357.021 849.207,355.521 844.5,357C 840.356,360.979 840.69,364.645 845.5,368C 857.698,370.565 861.198,377.398 856,388.5C 853.985,389.697 852.151,391.03 850.5,392.5 Z"/></g>
<g><path style="opacity:0.799" fill="#3987c6" d="M 1130.5,392.5 C 1125.83,392.5 1121.17,392.5 1116.5,392.5C 1102.91,385.241 1099.74,374.574 1107,360.5C 1116.11,352.012 1126.28,350.512 1137.5,356C 1136.95,357.845 1135.95,359.345 1134.5,360.5C 1126.08,353.804 1118.58,354.804 1112,363.5C 1108.27,372.084 1109.44,379.917 1115.5,387C 1122.46,390.578 1129.13,390.078 1135.5,385.5C 1136.61,386.723 1136.78,388.056 1136,389.5C 1134.12,390.609 1132.29,391.609 1130.5,392.5 Z"/></g>
<g><path style="opacity:0.821" fill="#3987c6" d="M 1173.5,392.5 C 1168.83,392.5 1164.17,392.5 1159.5,392.5C 1147.96,387.751 1143.46,379.084 1146,366.5C 1149.44,357.019 1156.27,352.353 1166.5,352.5C 1186.49,355.801 1192.32,366.801 1184,385.5C 1181,388.738 1177.5,391.071 1173.5,392.5 Z M 1163.5,355.5 C 1174.87,355.7 1180.87,361.533 1181.5,373C 1181.31,383.022 1176.31,388.856 1166.5,390.5C 1156.68,388.845 1151.68,383.011 1151.5,373C 1151.71,364.369 1155.71,358.536 1163.5,355.5 Z"/></g>
<g><path style="opacity:0.796" fill="#3987c6" d="M 1228.5,392.5 C 1227.83,392.5 1227.17,392.5 1226.5,392.5C 1218.21,383.037 1209.71,373.704 1201,364.5C 1199.43,373.798 1199.26,383.131 1200.5,392.5C 1199.83,392.5 1199.17,392.5 1198.5,392.5C 1198.17,391.167 1197.83,391.167 1197.5,392.5C 1196.83,392.5 1196.17,392.5 1195.5,392.5C 1196.03,379.166 1196.69,365.833 1197.5,352.5C 1206.49,361.656 1215.32,370.989 1224,380.5C 1224.34,377.139 1224.84,373.806 1225.5,370.5C 1224.59,364.875 1224.26,359.208 1224.5,353.5C 1226.17,353.5 1227.83,353.5 1229.5,353.5C 1228.62,366.478 1228.29,379.478 1228.5,392.5 Z"/></g>
<g><path style="opacity:0.801" fill="#3987c6" d="M 1356.5,392.5 C 1351.83,392.5 1347.17,392.5 1342.5,392.5C 1333.35,389.411 1329.02,382.911 1329.5,373C 1330.32,360.01 1337.32,353.177 1350.5,352.5C 1354.51,353.169 1358.51,353.836 1362.5,354.5C 1362.75,356.827 1362.09,358.827 1360.5,360.5C 1353.16,353.905 1346,354.238 1339,361.5C 1333.83,370.632 1334.66,379.132 1341.5,387C 1348.46,390.578 1355.13,390.078 1361.5,385.5C 1362.61,386.723 1362.78,388.056 1362,389.5C 1360.12,390.609 1358.29,391.609 1356.5,392.5 Z"/></g>
<g><path style="opacity:0.813" fill="#3987c6" d="M 1399.5,392.5 C 1394.5,392.5 1389.5,392.5 1384.5,392.5C 1372.98,387.183 1368.82,378.183 1372,365.5C 1375.91,356.782 1382.75,352.449 1392.5,352.5C 1407.94,353.773 1414.77,362.106 1413,377.5C 1411.43,385.235 1406.93,390.235 1399.5,392.5 Z M 1389.5,355.5 C 1397.98,354.815 1403.48,358.482 1406,366.5C 1407.33,373.249 1406.33,379.582 1403,385.5C 1395.38,392.032 1388.05,391.698 1381,384.5C 1376.85,377.325 1376.52,369.992 1380,362.5C 1382.53,359.115 1385.7,356.782 1389.5,355.5 Z"/></g>
<g><path style="opacity:0.815" fill="#3987c6" d="M 1561.5,392.5 C 1556.5,392.5 1551.5,392.5 1546.5,392.5C 1535.26,388.032 1530.76,379.699 1533,367.5C 1535.99,357.354 1542.82,352.354 1553.5,352.5C 1571.75,354.629 1578.25,364.629 1573,382.5C 1570.21,387.134 1566.37,390.467 1561.5,392.5 Z M 1550.5,355.5 C 1561.89,355.728 1567.89,361.561 1568.5,373C 1566.62,388.599 1558.62,393.266 1544.5,387C 1542.57,384.742 1541.07,382.242 1540,379.5C 1539.16,374.079 1539.49,368.746 1541,363.5C 1543.16,359.495 1546.33,356.829 1550.5,355.5 Z"/></g>
<g><path style="opacity:0.807" fill="#3987c6" d="M 1616.5,353.5 C 1616.5,356.833 1616.5,360.167 1616.5,363.5C 1615.51,372.986 1615.17,382.652 1615.5,392.5C 1614.83,392.5 1614.17,392.5 1613.5,392.5C 1605.21,383.037 1596.71,373.704 1588,364.5C 1587.5,373.827 1587.33,383.161 1587.5,392.5C 1586.83,392.5 1586.17,392.5 1585.5,392.5C 1585.17,391.167 1584.83,391.167 1584.5,392.5C 1583.83,392.5 1583.17,392.5 1582.5,392.5C 1583.09,379.178 1583.76,365.845 1584.5,352.5C 1593.82,361.989 1602.99,371.656 1612,381.5C 1612.69,372.144 1612.52,362.811 1611.5,353.5C 1613.17,353.5 1614.83,353.5 1616.5,353.5 Z"/></g>
<g><path style="opacity:0.993" fill="#7fcbf1" d="M 0.5,353.5 C 21.8687,365.848 43.202,378.182 64.5,390.5C 54.1613,390.666 43.828,390.5 33.5,390C 14.2155,385.22 3.21554,373.053 0.5,353.5 Z"/></g>
<g><path style="opacity:0.776" fill="#3987c6" d="M 578.5,392.5 C 576.167,392.5 573.833,392.5 571.5,392.5C 570.124,388.077 568.457,383.744 566.5,379.5C 561.88,378.507 557.214,378.173 552.5,378.5C 550.968,383.097 549.635,387.764 548.5,392.5C 546.5,392.5 544.5,392.5 542.5,392.5C 548.445,379.611 554.112,366.611 559.5,353.5C 561.124,353.36 562.29,354.027 563,355.5C 568.179,367.855 573.346,380.188 578.5,392.5 Z M 559.5,363.5 C 561.147,366.729 562.814,370.063 564.5,373.5C 561.572,374.484 558.572,374.817 555.5,374.5C 556.551,370.731 557.884,367.065 559.5,363.5 Z"/></g>
<g><path style="opacity:0.782" fill="#3987c6" d="M 1491.5,392.5 C 1489.17,392.5 1486.83,392.5 1484.5,392.5C 1483.12,388.077 1481.46,383.744 1479.5,379.5C 1474.83,378.167 1470.17,378.167 1465.5,379.5C 1464.02,383.94 1462.35,388.274 1460.5,392.5C 1458.83,392.5 1457.17,392.5 1455.5,392.5C 1461.45,379.611 1467.11,366.611 1472.5,353.5C 1474.12,353.36 1475.29,354.027 1476,355.5C 1481.18,367.855 1486.35,380.188 1491.5,392.5 Z M 1472.5,363.5 C 1474.26,366.864 1475.93,370.364 1477.5,374C 1474.17,374.667 1470.83,374.667 1467.5,374C 1469.58,370.671 1471.25,367.171 1472.5,363.5 Z"/></g>
<g><path style="opacity:0.822" fill="#3987c6" d="M 1526.5,392.5 C 1515.83,392.5 1505.17,392.5 1494.5,392.5C 1502.12,381.202 1509.78,369.869 1517.5,358.5C 1510.82,357.286 1504.16,357.286 1497.5,358.5C 1497.5,356.833 1497.5,355.167 1497.5,353.5C 1507.47,354.23 1517.47,354.73 1527.5,355C 1519.25,366.158 1511.25,377.491 1503.5,389C 1511.14,388.738 1518.8,388.571 1526.5,388.5C 1526.5,389.833 1526.5,391.167 1526.5,392.5 Z"/></g>
<g><path style="opacity:0.797" fill="#3987c6" d="M 437.5,392.5 C 430.5,392.5 423.5,392.5 416.5,392.5C 417.104,379.79 417.104,367.123 416.5,354.5C 423.508,354.334 430.508,354.5 437.5,355C 436.167,356 436.167,357 437.5,358C 432.511,358.499 427.511,358.666 422.5,358.5C 422.5,362.5 422.5,366.5 422.5,370.5C 426.833,370.5 431.167,370.5 435.5,370.5C 435.5,371.833 435.5,373.167 435.5,374.5C 431.167,374.5 426.833,374.5 422.5,374.5C 422.5,379.5 422.5,384.5 422.5,389.5C 427.507,389.249 432.507,388.916 437.5,388.5C 437.5,389.833 437.5,391.167 437.5,392.5 Z"/></g>
<g><path style="opacity:0.857" fill="#3987c6" d="M 468.5,392.5 C 461.5,392.5 454.5,392.5 447.5,392.5C 448.794,379.832 448.794,367.165 447.5,354.5C 449.857,354.337 452.19,354.503 454.5,355C 453.512,366.419 453.179,377.919 453.5,389.5C 458.518,389.387 463.518,389.053 468.5,388.5C 468.5,389.833 468.5,391.167 468.5,392.5 Z"/></g>
<g><path style="opacity:0.801" fill="#3987c6" d="M 528.5,392.5 C 526.833,392.5 525.167,392.5 523.5,392.5C 518.792,380.079 513.792,367.746 508.5,355.5C 510.833,354.167 513.167,354.167 515.5,355.5C 518.844,365.365 522.677,375.032 527,384.5C 530.931,374.873 534.765,365.206 538.5,355.5C 540.167,354.167 541.833,354.167 543.5,355.5C 538.204,367.752 533.204,380.085 528.5,392.5 Z"/></g>
<g><path style="opacity:0.88" fill="#3987c6" d="M 605.5,392.5 C 598.5,392.5 591.5,392.5 584.5,392.5C 585.773,379.83 585.773,367.163 584.5,354.5C 586.924,354.192 589.257,354.526 591.5,355.5C 590.522,366.782 590.188,378.115 590.5,389.5C 595.518,389.387 600.518,389.053 605.5,388.5C 605.5,389.833 605.5,391.167 605.5,392.5 Z"/></g>
<g><path style="opacity:0.81" fill="#3987c6" d="M 692.5,392.5 C 689.5,392.5 686.5,392.5 683.5,392.5C 679.748,386.023 675.248,380.023 670,374.5C 669.501,380.491 669.334,386.491 669.5,392.5C 667.5,392.5 665.5,392.5 663.5,392.5C 663.5,379.833 663.5,367.167 663.5,354.5C 669.842,354.334 676.175,354.5 682.5,355C 690.157,360.127 690.49,365.794 683.5,372C 681.608,372.973 679.608,373.64 677.5,374C 682.334,380.331 687.334,386.497 692.5,392.5 Z M 669.5,357.5 C 675.948,355.822 680.281,357.988 682.5,364C 680.355,370.078 676.022,372.578 669.5,371.5C 669.5,366.833 669.5,362.167 669.5,357.5 Z"/></g>
<g><path style="opacity:0.822" fill="#3987c6" d="M 752.5,392.5 C 745.167,392.5 737.833,392.5 730.5,392.5C 730.5,379.833 730.5,367.167 730.5,354.5C 738.507,354.334 746.507,354.5 754.5,355C 759.863,356.605 763.363,360.105 765,365.5C 767.786,377.92 763.619,386.92 752.5,392.5 Z M 736.5,357.5 C 754.954,354.784 762.12,362.451 758,380.5C 756.402,385.099 753.235,387.932 748.5,389C 744.514,389.499 740.514,389.666 736.5,389.5C 736.5,378.833 736.5,368.167 736.5,357.5 Z"/></g>
<g><path style="opacity:0.837" fill="#3987c6" d="M 797.5,392.5 C 790.5,392.5 783.5,392.5 776.5,392.5C 777.701,379.821 777.701,367.154 776.5,354.5C 783.5,354.5 790.5,354.5 797.5,354.5C 797.5,355.833 797.5,357.167 797.5,358.5C 792.5,358.5 787.5,358.5 782.5,358.5C 782.5,362.5 782.5,366.5 782.5,370.5C 787.179,370.334 791.845,370.501 796.5,371C 795.167,372 795.167,373 796.5,374C 791.845,374.499 787.179,374.666 782.5,374.5C 782.5,379.5 782.5,384.5 782.5,389.5C 787.507,389.249 792.507,388.916 797.5,388.5C 797.5,389.833 797.5,391.167 797.5,392.5 Z"/></g>
<g><path style="opacity:0.791" fill="#3987c6" d="M 887.5,392.5 C 880.5,392.5 873.5,392.5 866.5,392.5C 866.5,379.833 866.5,367.167 866.5,354.5C 873.508,354.334 880.508,354.5 887.5,355C 886.167,356 886.167,357 887.5,358C 882.511,358.499 877.511,358.666 872.5,358.5C 872.5,362.5 872.5,366.5 872.5,370.5C 876.833,370.5 881.167,370.5 885.5,370.5C 885.5,371.833 885.5,373.167 885.5,374.5C 881.167,374.5 876.833,374.5 872.5,374.5C 872.5,379.5 872.5,384.5 872.5,389.5C 877.507,389.249 882.507,388.916 887.5,388.5C 887.5,389.833 887.5,391.167 887.5,392.5 Z"/></g>
<g><path style="opacity:0.831" fill="#3987c6" d="M 926.5,392.5 C 923.833,392.5 921.167,392.5 918.5,392.5C 914.259,386.085 909.426,380.085 904,374.5C 903.501,380.491 903.334,386.491 903.5,392.5C 901.5,392.5 899.5,392.5 897.5,392.5C 898.782,379.832 898.782,367.165 897.5,354.5C 903.842,354.334 910.175,354.5 916.5,355C 920.68,356.024 922.68,358.69 922.5,363C 922.2,369.967 918.533,373.634 911.5,374C 916.388,380.289 921.388,386.456 926.5,392.5 Z M 903.5,357.5 C 907.584,357.043 911.417,357.71 915,359.5C 917.223,363.388 916.723,366.888 913.5,370C 910.274,371.199 906.941,371.699 903.5,371.5C 903.5,366.833 903.5,362.167 903.5,357.5 Z"/></g>
<g><path style="opacity:0.807" fill="#3987c6" d="M 951.5,392.5 C 949.833,392.5 948.167,392.5 946.5,392.5C 941.789,380.075 936.789,367.741 931.5,355.5C 933.833,354.167 936.167,354.167 938.5,355.5C 941.844,365.365 945.677,375.032 950,384.5C 953.931,374.873 957.765,365.206 961.5,355.5C 963.167,354.167 964.833,354.167 966.5,355.5C 961.211,367.741 956.211,380.075 951.5,392.5 Z"/></g>
<g><path style="opacity:0.818" fill="#3987c6" d="M 978.5,392.5 C 976.5,392.5 974.5,392.5 972.5,392.5C 972.5,379.833 972.5,367.167 972.5,354.5C 974.5,354.5 976.5,354.5 978.5,354.5C 978.5,367.167 978.5,379.833 978.5,392.5 Z"/></g>
<g><path style="opacity:0.825" fill="#3987c6" d="M 1019.5,392.5 C 1016.83,392.5 1014.17,392.5 1011.5,392.5C 1007.31,386.129 1002.65,380.129 997.5,374.5C 997.155,380.432 997.155,386.432 997.5,392.5C 995.5,392.5 993.5,392.5 991.5,392.5C 991.5,379.833 991.5,367.167 991.5,354.5C 997.842,354.334 1004.18,354.5 1010.5,355C 1017.92,360.203 1018.26,365.869 1011.5,372C 1009.5,372.667 1007.5,373.333 1005.5,374C 1010.41,380.062 1015.07,386.229 1019.5,392.5 Z M 997.5,357.5 C 1000.98,357.184 1004.31,357.684 1007.5,359C 1010.37,362.943 1010.03,366.61 1006.5,370C 1003.31,371.316 999.978,371.816 996.5,371.5C 997.127,366.859 997.46,362.193 997.5,357.5 Z"/></g>
<g><path style="opacity:0.803" fill="#3987c6" d="M 1039.5,392.5 C 1037.5,392.5 1035.5,392.5 1033.5,392.5C 1033.5,381.167 1033.5,369.833 1033.5,358.5C 1029.5,358.5 1025.5,358.5 1021.5,358.5C 1021.5,357.167 1021.5,355.833 1021.5,354.5C 1031.17,354.5 1040.83,354.5 1050.5,354.5C 1050.5,355.833 1050.5,357.167 1050.5,358.5C 1046.83,358.5 1043.17,358.5 1039.5,358.5C 1039.5,369.833 1039.5,381.167 1039.5,392.5 Z"/></g>
<g><path style="opacity:0.836" fill="#3987c6" d="M 1079.5,392.5 C 1072.5,392.5 1065.5,392.5 1058.5,392.5C 1059.74,379.817 1059.74,367.151 1058.5,354.5C 1065.5,354.5 1072.5,354.5 1079.5,354.5C 1079.5,355.833 1079.5,357.167 1079.5,358.5C 1074.79,358.173 1070.12,358.507 1065.5,359.5C 1064.57,363.094 1064.24,366.76 1064.5,370.5C 1069.18,370.334 1073.85,370.501 1078.5,371C 1077.17,372 1077.17,373 1078.5,374C 1073.85,374.499 1069.18,374.666 1064.5,374.5C 1064.5,379.5 1064.5,384.5 1064.5,389.5C 1069.52,389.387 1074.52,389.053 1079.5,388.5C 1079.5,389.833 1079.5,391.167 1079.5,392.5 Z"/></g>
<g><path style="opacity:0.8" fill="#3987c6" d="M 1278.5,392.5 C 1271.5,392.5 1264.5,392.5 1257.5,392.5C 1257.5,379.833 1257.5,367.167 1257.5,354.5C 1264.17,354.5 1270.83,354.5 1277.5,354.5C 1277.5,355.833 1277.5,357.167 1277.5,358.5C 1272.83,358.5 1268.17,358.5 1263.5,358.5C 1263.5,362.5 1263.5,366.5 1263.5,370.5C 1267.83,370.5 1272.17,370.5 1276.5,370.5C 1276.5,371.833 1276.5,373.167 1276.5,374.5C 1272.17,374.5 1267.83,374.5 1263.5,374.5C 1263.5,379.5 1263.5,384.5 1263.5,389.5C 1268.51,389.08 1273.51,388.913 1278.5,389C 1277.32,390.145 1277.32,391.312 1278.5,392.5 Z"/></g>
<g><path style="opacity:0.808" fill="#3987c6" d="M 1309.5,392.5 C 1302.5,392.5 1295.5,392.5 1288.5,392.5C 1288.5,379.833 1288.5,367.167 1288.5,354.5C 1290.5,354.5 1292.5,354.5 1294.5,354.5C 1294.5,366.167 1294.5,377.833 1294.5,389.5C 1299.52,389.387 1304.52,389.053 1309.5,388.5C 1309.5,389.833 1309.5,391.167 1309.5,392.5 Z"/></g>
<g><path style="opacity:0.813" fill="#3987c6" d="M 1453.5,392.5 C 1450.5,392.5 1447.5,392.5 1444.5,392.5C 1440.75,386.023 1436.25,380.023 1431,374.5C 1430.5,380.491 1430.33,386.491 1430.5,392.5C 1428.5,392.5 1426.5,392.5 1424.5,392.5C 1424.5,379.833 1424.5,367.167 1424.5,354.5C 1430.84,354.334 1437.18,354.5 1443.5,355C 1451.04,360.173 1451.37,365.84 1444.5,372C 1442.61,372.973 1440.61,373.64 1438.5,374C 1443.33,380.331 1448.33,386.497 1453.5,392.5 Z M 1430.5,357.5 C 1436.64,355.959 1440.98,357.959 1443.5,363.5C 1441.59,369.962 1437.25,372.628 1430.5,371.5C 1430.5,366.833 1430.5,362.167 1430.5,357.5 Z"/></g>
</svg>
