<?xml version="1.0" encoding="UTF-8"?>
<svg id="Capa_2" xmlns="http://www.w3.org/2000/svg" viewBox="0 0 284.69 284.69">
  <defs>
    <style>
      .cls-1 {
        fill: #3c3c3c;
      }
    </style>
  </defs>
  <g id="Capa_1-2" data-name="Capa_1">
    <g>
      <g>
        <g>
          <g>
            <path class="cls-1" d="M190.05,135.84l-23.85-20.87,24.73-28.32c5.77-6.59,15.81-7.25,22.37-1.49,6.41,5.57,7.22,15.45,1.78,22l-.17.21-24.86,28.46ZM183.4,113.82l5.49,4.81,16.8-19.24c1.24-1.5,1.06-3.76-.41-5.03-1.53-1.34-3.84-1.18-5.17.34l-16.71,19.13Z"/>
            <path class="cls-1" d="M149.25,100.13l-23.83-20.9,23.72-27.18c2.79-3.19,6.65-5.09,10.88-5.37,4.23-.28,8.31,1.09,11.49,3.88,6.41,5.57,7.22,15.45,1.78,22.01l-.18.21-23.87,27.34ZM142.61,78.09l5.49,4.81,15.81-18.11c1.24-1.5,1.06-3.76-.41-5.03-.74-.65-1.68-.96-2.66-.9-.98.07-1.87.5-2.51,1.24l-15.71,18Z"/>
          </g>
          <g>
            <path class="cls-1" d="M101.32,100.2l-4.78-3.98-16.05-14.07,28.94-33.09,21.36,18.67-29.47,32.47ZM97.69,81.01l2.55,2.23,13.17-14.51-2.82-2.47-12.89,14.74Z"/>
            <path class="cls-1" d="M192.06,179.79l-20.91-18.32,29.53-32.53,20.34,17.79-28.96,33.06ZM188.52,160.48l2.4,2.1,12.88-14.7-2.14-1.87-13.14,14.47Z"/>
            <path class="cls-1" d="M180.44,169.38l-4.79-3.95-83.61-73.15,29.56-32.58,88.26,77.27-29.42,32.41ZM109.42,91.28l69.92,61.17,13.14-14.48-69.9-61.2-13.17,14.51Z"/>
          </g>
          <rect class="cls-1" x="43.62" y="208.45" width="47.59" height="12.2" transform="translate(-140.76 129.48) rotate(-50.33)"/>
          <path class="cls-1" d="M131.02,200.26c-7.54,0-15.15-1.79-22.18-5.48-2.21-1.17-4.31-2.48-6.25-3.92-1.26-.97-2.38-1.89-3.5-2.89l-16.27-14.76c-1.01-.91-2.01-1.9-3.05-3.04-16.58-17.98-16.7-46.29-.25-64.44l20.44-22.51,4.78,3.97,83.61,73.15-22.1,24.34c-9.24,10.19-22.13,15.58-35.23,15.58ZM101.05,100.17l-12.49,13.76c-12.24,13.51-12.16,34.59.2,48,.79.86,1.5,1.58,2.21,2.21l.2.17,16.09,14.61c.85.76,1.75,1.51,2.68,2.22,1.38,1.02,2.91,1.98,4.6,2.87,14.31,7.51,31.87,4.42,42.7-7.51l13.75-15.14-69.92-61.17Z"/>
          <path class="cls-1" d="M92.75,205.88c-5.25,0-10.11-1.69-14.04-4.95-5.15-4.27-7.96-10.63-7.89-17.9.06-6.8,2.66-13.66,7.34-19.29.59-.71,1.2-1.39,1.85-2.03l4.51-4.43,4.26,4.67c.76.84,1.48,1.55,2.18,2.19l16.28,14.77c2.22,2,4.67,3.72,7.26,5.08l6.08,3.19-3.88,5.66c-.41.59-.86,1.19-1.34,1.77-4.67,5.63-10.92,9.46-17.6,10.77-1.7.33-3.38.5-5.02.5ZM85.06,175.24c-1.31,2.53-2.03,5.23-2.05,7.89-.03,3.54,1.21,6.52,3.48,8.41,2.28,1.89,5.44,2.55,8.91,1.87,2.34-.46,4.61-1.47,6.68-2.95-1.03-.79-2.04-1.63-3.01-2.51l-14.01-12.71Z"/>
        </g>
        <path class="cls-1" d="M134.14,268.59c-30.22,0-60.61-10.12-85.64-30.88C-8.5,190.42-16.4,105.58,30.88,48.58,53.78,20.96,86.07,3.92,121.79.59c35.71-3.33,70.6,7.45,98.22,30.36,27.61,22.91,44.65,55.19,47.98,90.91,3.33,35.72-7.45,70.6-30.36,98.22h0c-26.53,31.98-64.88,48.51-103.49,48.51ZM134.47,12.2c-3.83,0-7.68.18-11.55.54-32.48,3.03-61.83,18.52-82.66,43.63C-2.72,108.19,4.47,185.33,56.29,228.32c51.82,42.98,128.96,35.79,171.95-16.03h0c20.82-25.11,30.63-56.82,27.6-89.3-3.03-32.48-18.52-61.83-43.63-82.66-22.12-18.35-49.37-28.14-77.75-28.14Z"/>
      </g>
      <!-- <g>
        <path class="cls-1" d="M415.83,12.91h-109.36v247.84h51.86v-89.97h57.5c48.52,0,79.48-32.47,79.48-77.62s-30.96-80.26-79.48-80.26ZM407.6,128.62h-49.28V55.85h49.28c29.86,0,42.18,15.3,42.18,35.84,0,21.64-12.32,36.93-42.18,36.93Z"/>
        <path class="cls-1" d="M501.28,9.94v250.82h48.52V9.94h-48.52Z"/>
        <path class="cls-1" d="M681.92,77.12v105.99c0,24.27-13.05,41.81-37.69,41.81-20.52,0-30.98-11.2-30.98-34.35v-113.46h-48.52v120.92c0,40.32,25.76,67.55,62.33,67.55,25.39,0,44.42-9.68,57.11-30.59v25.76h45.91V77.12h-48.15Z"/>
        <path class="cls-1" d="M873.78,77.12v22.76c-11.59-18.66-28.37-27.61-51.52-27.61-44.42,0-80.23,38.45-80.23,95.55,0,48.15,20.91,94.43,81.35,94.43,23.88,0,43.67-9.71,50.4-26.13v30.22c0,24.27-20.54,39.57-46.3,39.57-15.03,0-26.88-5.03-33.74-14.08h-49.01c9.49,34.93,43.03,55.86,86.11,55.86,51.13,0,91.45-29.86,91.45-85.09V77.12h-48.52ZM833.84,224.17c-23.91,0-41.45-20.91-41.45-53.74,0-37.69,14.2-55.98,41.45-55.98s41.42,19.03,41.42,58.96c0,30.98-17.93,50.76-41.42,50.76Z"/>
      </g> -->
      <!-- <g>
        <g>
          <path class="cls-1" d="M312.4,313.24c-2.34-1.29-4.17-3.05-5.49-5.31s-1.99-4.79-1.99-7.61.66-5.36,1.99-7.61,3.17-4.02,5.52-5.31c2.35-1.29,4.98-1.93,7.88-1.93,2.27,0,4.34.38,6.22,1.14s3.48,1.89,4.81,3.38l-2.7,2.61c-2.18-2.29-4.91-3.44-8.17-3.44-2.16,0-4.11.49-5.85,1.45s-3.1,2.3-4.08,4c-.98,1.7-1.47,3.6-1.47,5.7s.49,4,1.47,5.7c.98,1.7,2.34,3.03,4.08,4s3.69,1.45,5.85,1.45c3.24,0,5.96-1.16,8.17-3.48l2.7,2.61c-1.33,1.49-2.94,2.63-4.83,3.4-1.89.77-3.97,1.16-6.24,1.16-2.9,0-5.52-.64-7.86-1.93Z"/>
          <path class="cls-1" d="M357.21,313.24c-2.35-1.29-4.2-3.06-5.54-5.33-1.34-2.27-2.01-4.8-2.01-7.59s.67-5.32,2.01-7.59c1.34-2.27,3.19-4.05,5.54-5.33,2.35-1.29,4.99-1.93,7.92-1.93s5.53.64,7.88,1.93c2.35,1.28,4.19,3.05,5.51,5.31s1.99,4.79,1.99,7.61-.66,5.36-1.99,7.61-3.17,4.02-5.51,5.31c-2.35,1.28-4.98,1.93-7.88,1.93s-5.57-.64-7.92-1.93ZM370.87,310.03c1.7-.97,3.04-2.3,4.02-4,.98-1.7,1.47-3.6,1.47-5.7s-.49-4-1.47-5.7c-.98-1.7-2.32-3.03-4.02-4-1.7-.97-3.62-1.45-5.74-1.45s-4.06.49-5.79,1.45c-1.73.97-3.08,2.3-4.06,4-.98,1.7-1.47,3.6-1.47,5.7s.49,4,1.47,5.7c.98,1.7,2.34,3.03,4.06,4,1.73.97,3.66,1.45,5.79,1.45s4.04-.48,5.74-1.45Z"/>
          <path class="cls-1" d="M427.21,285.81v29.03h-3.4l-17.42-21.65v21.65h-4.15v-29.03h3.4l17.42,21.65v-21.65h4.15Z"/>
          <path class="cls-1" d="M476.27,285.81v29.03h-3.4l-17.42-21.65v21.65h-4.15v-29.03h3.4l17.42,21.65v-21.65h4.15Z"/>
          <path class="cls-1" d="M521.43,311.23v3.61h-21.07v-29.03h20.49v3.61h-16.34v8.92h14.56v3.52h-14.56v9.37h16.92Z"/>
          <path class="cls-1" d="M548.53,313.24c-2.34-1.29-4.17-3.05-5.49-5.31s-1.99-4.79-1.99-7.61.66-5.36,1.99-7.61,3.17-4.02,5.52-5.31c2.35-1.29,4.98-1.93,7.88-1.93,2.27,0,4.34.38,6.22,1.14s3.48,1.89,4.81,3.38l-2.7,2.61c-2.18-2.29-4.91-3.44-8.17-3.44-2.16,0-4.11.49-5.85,1.45s-3.1,2.3-4.08,4c-.98,1.7-1.47,3.6-1.47,5.7s.49,4,1.47,5.7c.98,1.7,2.34,3.03,4.08,4s3.69,1.45,5.85,1.45c3.24,0,5.96-1.16,8.17-3.48l2.7,2.61c-1.33,1.49-2.94,2.63-4.83,3.4-1.89.77-3.97,1.16-6.24,1.16-2.9,0-5.52-.64-7.86-1.93Z"/>
          <path class="cls-1" d="M594.21,289.42h-9.95v-3.61h24.01v3.61h-9.95v25.42h-4.11v-25.42Z"/>
          <path class="cls-1" d="M628.17,285.81h4.15v29.03h-4.15v-29.03Z"/>
          <path class="cls-1" d="M681.38,285.81v29.03h-3.4l-17.42-21.65v21.65h-4.15v-29.03h3.4l17.42,21.65v-21.65h4.15Z"/>
          <path class="cls-1" d="M725.58,300.16h3.98v11.32c-1.44,1.19-3.11,2.1-5.02,2.74-1.91.64-3.9.95-5.97.95-2.93,0-5.57-.64-7.92-1.93-2.35-1.29-4.2-3.05-5.54-5.31-1.34-2.25-2.01-4.79-2.01-7.61s.67-5.36,2.01-7.63c1.34-2.27,3.19-4.04,5.56-5.31,2.36-1.27,5.02-1.91,7.98-1.91,2.32,0,4.43.38,6.32,1.14,1.89.76,3.5,1.87,4.83,3.34l-2.57,2.57c-2.32-2.24-5.13-3.36-8.42-3.36-2.21,0-4.2.48-5.95,1.43s-3.13,2.28-4.13,3.98c-.99,1.7-1.49,3.62-1.49,5.74s.5,4,1.49,5.7c1,1.7,2.37,3.03,4.13,4s3.73,1.45,5.91,1.45c2.6,0,4.87-.62,6.8-1.87v-9.46Z"/>
        </g>
        <g>
          <path class="cls-1" d="M307.28,325.33h4.15v29.03h-4.15v-29.03Z"/>
          <path class="cls-1" d="M335.52,325.33h12.23c3.07,0,5.79.61,8.17,1.82,2.38,1.22,4.22,2.93,5.54,5.12,1.31,2.2,1.97,4.72,1.97,7.57s-.66,5.37-1.97,7.57c-1.31,2.2-3.16,3.91-5.54,5.12-2.38,1.22-5.1,1.82-8.17,1.82h-12.23v-29.03ZM347.5,350.75c2.35,0,4.42-.46,6.2-1.37,1.78-.91,3.16-2.19,4.13-3.84.97-1.65,1.45-3.55,1.45-5.7s-.48-4.06-1.45-5.7c-.97-1.65-2.34-2.93-4.13-3.84-1.78-.91-3.85-1.37-6.2-1.37h-7.84v21.81h7.84Z"/>
          <path class="cls-1" d="M406.22,350.75v3.61h-21.07v-29.03h20.49v3.61h-16.34v8.92h14.56v3.52h-14.56v9.37h16.92Z"/>
          <path class="cls-1" d="M446.82,347.1h-15.43l-3.19,7.26h-4.27l13.15-29.03h4.11l13.19,29.03h-4.35l-3.19-7.26ZM445.37,343.78l-6.26-14.22-6.26,14.22h12.52Z"/>
          <path class="cls-1" d="M476.2,353.67c-2.03-.68-3.63-1.56-4.79-2.63l1.54-3.23c1.11.99,2.52,1.8,4.25,2.43s3.5.93,5.33.93c2.4,0,4.2-.41,5.39-1.22s1.78-1.9,1.78-3.25c0-1-.33-1.81-.97-2.43s-1.45-1.1-2.4-1.43c-.95-.33-2.3-.71-4.04-1.12-2.18-.53-3.95-1.05-5.29-1.58-1.34-.52-2.49-1.33-3.44-2.43-.95-1.09-1.43-2.57-1.43-4.42,0-1.55.41-2.94,1.22-4.19.82-1.25,2.05-2.24,3.71-2.99,1.66-.75,3.72-1.12,6.18-1.12,1.71,0,3.4.22,5.06.66,1.66.44,3.08,1.08,4.27,1.91l-1.37,3.32c-1.22-.77-2.52-1.36-3.9-1.76-1.38-.4-2.74-.6-4.06-.6-2.35,0-4.11.43-5.29,1.28-1.18.86-1.76,1.97-1.76,3.32,0,1,.33,1.8,1,2.43.66.62,1.49,1.11,2.47,1.45s2.32.71,4,1.1c2.18.53,3.94,1.05,5.27,1.58,1.33.52,2.47,1.33,3.42,2.4.95,1.08,1.43,2.53,1.43,4.35,0,1.52-.41,2.91-1.24,4.17-.83,1.26-2.09,2.25-3.77,2.98-1.69.73-3.76,1.1-6.22,1.1-2.18,0-4.29-.34-6.32-1.01Z"/>
        </g>
      </g> -->
    </g>
  </g>
</svg>