<?xml version="1.0" standalone="no"?>
<!DOCTYPE svg PUBLIC "-//W3C//DTD SVG 20010904//EN"
 "http://www.w3.org/TR/2001/REC-SVG-20010904/DTD/svg10.dtd">
<svg version="1.0" xmlns="http://www.w3.org/2000/svg"
 width="441.000000pt" height="443.000000pt" viewBox="0 0 441.000000 443.000000"
 preserveAspectRatio="xMidYMid meet">

<g transform="translate(0.000000,443.000000) scale(0.100000,-0.100000)"
fill="#000000" stroke="none">
<path d="M685 2883 c-365 -134 -472 -598 -201 -867 101 -100 213 -146 356
-146 177 0 325 71 425 203 225 295 94 708 -259 821 -81 26 -235 21 -321 -11z
m323 -42 c151 -53 236 -141 303 -310 21 -54 18 -215 -6 -284 -10 -31 -23 -57
-27 -57 -4 0 -8 -7 -8 -16 0 -33 -87 -130 -165 -184 -55 -38 -184 -80 -246
-80 -103 0 -279 61 -279 97 0 13 24 52 57 93 6 7 122 21 167 21 76 -1 118 17
173 77 48 52 55 56 73 44 18 -11 24 -8 55 25 58 64 63 79 32 111 -15 16 -27
32 -27 38 0 5 14 29 30 53 36 52 37 73 8 101 -32 30 -54 25 -107 -25 l-47 -44
-32 22 c-37 26 -40 47 -11 73 36 33 51 71 38 97 -28 52 -74 51 -122 -3 -31
-35 -76 -54 -77 -32 0 4 -12 15 -25 25 -31 22 -43 16 -91 -47 -31 -41 -35 -52
-26 -67 17 -27 16 -34 -25 -90 -44 -62 -55 -134 -29 -199 9 -22 16 -64 16 -93
0 -46 -5 -57 -38 -96 -27 -32 -43 -43 -55 -38 -19 7 -96 125 -116 177 -7 19
-15 76 -18 126 -5 76 -2 104 15 161 52 168 181 292 352 337 88 23 164 20 258
-13z m-68 -179 c0 -11 -49 -62 -60 -62 -16 0 -12 15 11 44 19 24 49 36 49 18z
m-100 -108 c30 -24 78 -62 105 -83 100 -78 119 -97 112 -114 -12 -31 -51 -17
-129 46 -42 34 -99 80 -127 102 -51 40 -61 61 -39 83 17 17 16 17 78 -34z
m270 -36 c-1 -17 -35 -58 -49 -58 -18 0 -13 22 11 47 24 26 38 30 38 11z
m-306 -77 c129 -102 176 -143 176 -155 0 -7 -22 -36 -49 -64 -48 -50 -52 -52
-103 -52 -49 0 -58 4 -115 50 -44 36 -66 62 -78 94 -21 54 -14 82 37 149 38
52 38 52 132 -22z"/>
<path d="M2287 2848 c-16 -12 -17 -44 -15 -478 l3 -465 88 -3 87 -3 -2 478 -3
478 -70 3 c-46 2 -76 -2 -88 -10z"/>
<path d="M1515 2828 c-3 -7 -4 -218 -3 -468 l3 -455 95 0 95 0 2 145 c2 80 5
154 8 166 4 20 13 21 157 27 161 5 193 13 257 61 137 102 141 345 8 462 -77
68 -109 74 -380 74 -181 0 -239 -3 -242 -12z m472 -165 c67 -31 92 -115 57
-188 -28 -60 -48 -66 -197 -63 l-132 3 -3 119 c-1 66 0 126 2 133 8 21 228 18
273 -4z"/>
<path d="M3461 2608 c-210 -47 -304 -330 -191 -571 40 -84 149 -147 256 -147
49 0 131 25 156 47 9 8 22 12 27 8 18 -10 13 -113 -6 -146 -19 -32 -82 -67
-136 -76 -38 -6 -118 19 -138 43 -16 20 -177 20 -185 0 -6 -16 38 -90 70 -119
12 -10 46 -30 76 -45 50 -24 66 -27 165 -27 134 0 188 18 258 84 92 87 91 78
91 536 l1 400 -90 0 c-86 0 -90 -1 -93 -22 -4 -29 -17 -29 -56 0 -31 23 -108
48 -143 46 -10 -1 -38 -6 -62 -11z m173 -167 c67 -29 90 -79 90 -197 1 -83 -1
-94 -27 -132 -27 -42 -89 -82 -127 -82 -26 0 -56 17 -98 55 -44 40 -67 117
-57 194 12 98 35 135 100 166 41 19 65 18 119 -4z"/>
<path d="M2537 2593 c-4 -3 -7 -119 -7 -257 0 -252 4 -281 39 -346 62 -112
235 -144 351 -64 27 19 51 34 54 34 2 0 6 -13 10 -30 l6 -30 85 0 85 0 0 350
0 351 -87 -3 -88 -3 -5 -230 c-6 -260 -10 -280 -80 -315 -52 -27 -96 -25 -135
4 -48 37 -55 76 -55 325 l0 221 -83 0 c-46 0 -87 -3 -90 -7z"/>
<path d="M1553 1769 c-38 -14 -23 -89 17 -89 26 0 26 16 0 23 -27 7 -26 45 2
56 12 4 17 10 12 13 -5 3 -19 2 -31 -3z"/>
<path d="M1718 1773 c-41 -10 -26 -93 16 -93 23 0 56 32 56 54 0 24 -40 46
-72 39z m42 -28 c10 -12 10 -18 0 -30 -25 -30 -61 -7 -46 30 3 8 12 15 19 15
8 0 20 -7 27 -15z"/>
<path d="M1887 1774 c-10 -11 -8 -82 2 -89 6 -3 14 3 20 12 9 17 11 17 24 -1
19 -26 37 -12 37 30 0 31 -3 34 -28 34 -15 0 -33 5 -38 10 -6 6 -13 7 -17 4z"/>
<path d="M2076 1773 c-10 -10 -7 -81 3 -88 6 -3 14 3 20 12 9 17 11 17 24 -1
19 -26 32 -15 35 28 2 31 -1 36 -18 36 -12 0 -29 4 -39 10 -10 5 -21 6 -25 3z"/>
<path d="M2264 1767 c-3 -8 -4 -30 -2 -49 3 -29 7 -33 36 -36 30 -3 45 12 20
20 -7 3 -12 20 -12 38 -1 25 -6 36 -19 38 -9 2 -20 -3 -23 -11z"/>
<path d="M2615 1743 c11 -62 17 -71 25 -33 4 19 9 42 11 50 3 9 -5 16 -19 18
-22 3 -23 1 -17 -35z"/>
<path d="M2765 1747 c-8 -41 0 -72 15 -62 12 8 13 65 1 84 -7 11 -11 5 -16
-22z"/>
<path d="M2950 1763 c-8 -13 -13 -14 -16 -5 -3 6 -14 12 -25 12 -16 0 -19 -7
-19 -47 1 -44 2 -46 15 -29 14 19 16 19 34 2 28 -25 41 -12 37 35 -5 49 -11
56 -26 32z"/>
<path d="M3104 1770 c-33 -13 -38 -40 -12 -67 23 -25 58 -28 66 -5 2 8 -7 12
-27 12 -35 0 -43 24 -14 46 23 16 15 24 -13 14z"/>
<path d="M2437 1763 c-13 -13 -7 -50 11 -66 20 -18 57 -23 47 -7 -3 6 -15 10
-26 10 -29 0 -26 48 4 60 22 9 22 9 -4 9 -14 1 -29 -2 -32 -6z"/>
<path d="M1843 1612 c-13 -8 -20 -72 -9 -90 4 -6 18 -12 32 -12 23 0 31 10 17
23 -4 4 -7 24 -7 44 -1 37 -12 49 -33 35z"/>
<path d="M1647 1596 c-11 -27 5 -86 22 -86 40 1 67 47 45 78 -17 25 -59 29
-67 8z m48 -34 c0 -31 -19 -28 -23 4 -3 18 0 25 10 22 7 -3 13 -14 13 -26z"/>
<path d="M2024 1602 c-6 -4 -13 -16 -16 -27 -3 -11 -9 -27 -12 -36 -6 -13 0
-16 33 -16 45 0 51 12 29 60 -14 29 -17 31 -34 19z"/>
<path d="M2180 1586 c0 -14 5 -28 10 -31 8 -5 8 -11 0 -20 -8 -9 -6 -14 7 -19
25 -10 42 18 34 57 -5 23 -13 33 -29 35 -18 3 -22 -2 -22 -22z"/>
<path d="M1530 1559 c0 -24 4 -38 10 -34 6 3 10 22 10 41 0 19 -4 34 -10 34
-5 0 -10 -18 -10 -41z"/>
</g>
</svg>
